<svg width="108" height="34" viewBox="0 0 108 34" fill="none" xmlns="http://www.w3.org/2000/svg">
<rect x="0.5" y="0.5" width="107" height="32.5751" stroke="white"/>
<path d="M11.2518 21.6938C10.8386 21.6938 10.6321 21.579 10.6321 21.3495C10.6321 21.1134 10.7698 20.9954 11.0452 20.9954C11.4583 20.9954 11.7502 20.9331 11.9207 20.8085C12.2551 20.5659 12.4518 20.1495 12.5108 19.5593C12.524 19.4216 12.5371 19.2117 12.5502 18.9297C12.5699 18.6478 12.5895 18.3199 12.6092 17.9461C12.6354 17.5657 12.6584 17.1493 12.6781 16.6969C12.6977 16.2378 12.7174 15.7689 12.7371 15.2902C12.7633 14.805 12.7863 14.3197 12.8059 13.8344C12.8256 13.3492 12.842 12.8869 12.8551 12.4475C12.8879 11.3524 12.9043 10.6605 12.9043 10.372C12.9043 10.0835 12.8814 9.85723 12.8354 9.69329C12.7961 9.52935 12.7371 9.39492 12.6584 9.28999C12.5141 9.10638 12.2813 8.99162 11.96 8.94572C11.396 8.86703 11.1141 8.74571 11.1141 8.58177C11.1141 8.47029 11.1534 8.38176 11.2321 8.31618C11.3174 8.24405 11.4256 8.20798 11.5567 8.20798L13.101 8.34569L13.9666 8.30635C14.124 8.30635 14.2552 8.3752 14.3601 8.51291C14.465 8.64407 14.5831 8.8408 14.7142 9.1031L19.4751 18.9691C19.5865 18.7133 19.7341 18.3756 19.9177 17.9559C20.1013 17.5362 20.3013 17.0706 20.5177 16.5591C20.7407 16.0476 20.9768 15.5066 21.226 14.9361C21.4751 14.3656 21.7211 13.7984 21.9637 13.2344C22.2063 12.6705 22.4391 12.1295 22.6621 11.6114C22.885 11.0933 23.0818 10.6343 23.2523 10.2343C23.4228 9.82772 23.5638 9.49656 23.6752 9.24081C23.7867 8.98506 23.8621 8.80473 23.9015 8.69981C23.9474 8.58833 24.0326 8.48668 24.1572 8.39488C24.2818 8.30307 24.4294 8.25717 24.5999 8.25717L25.5245 8.29651L26.7049 8.20798C27.1967 8.20798 27.4426 8.3293 27.4426 8.57193C27.4426 8.68997 27.3344 8.77194 27.118 8.81784C26.9016 8.85719 26.718 8.89326 26.5672 8.92605C26.4163 8.95883 26.2753 9.00802 26.1442 9.07359C25.8425 9.23753 25.6917 9.50968 25.6917 9.89002L26.1934 19.5199C26.2458 20.3659 26.5639 20.8446 27.1475 20.956C27.3114 20.9823 27.4721 20.9954 27.6295 20.9954C27.9115 20.9954 28.0525 21.1134 28.0525 21.3495C28.0525 21.579 27.8459 21.6938 27.4328 21.6938C27.2688 21.6938 27.1278 21.6839 27.0098 21.6643C26.8918 21.6512 26.7737 21.638 26.6557 21.6249C26.3016 21.5725 25.9802 21.5462 25.6917 21.5462L23.5965 21.6938C23.1703 21.6938 22.9572 21.5725 22.9572 21.3298C22.9572 21.1265 23.1113 21.0249 23.4195 21.0249C23.7277 21.0249 23.9507 21.0019 24.0884 20.956C24.2326 20.9036 24.3376 20.8249 24.4031 20.72C24.4949 20.5626 24.5408 20.1921 24.5408 19.6084V18.6838C24.5408 18.2379 24.5081 17.3329 24.4425 15.969C24.3769 14.605 24.331 13.6312 24.3048 13.0475C24.2523 11.8147 24.2031 10.8802 24.1572 10.2441L19.5046 20.9069C19.3341 21.2938 19.18 21.4872 19.0423 21.4872C18.9504 21.4872 18.8718 21.4413 18.8062 21.3495C18.7472 21.2511 18.6652 21.097 18.5603 20.8872L13.7994 11.0802C13.5502 14.4181 13.4256 17.4707 13.4256 20.238C13.4256 20.7757 13.8617 21.0446 14.7339 21.0446C14.97 21.0446 15.088 21.1397 15.088 21.3298C15.088 21.5725 14.8749 21.6938 14.4486 21.6938L12.8551 21.5462C12.5207 21.5462 12.2059 21.5692 11.9108 21.6151C11.6157 21.6675 11.396 21.6938 11.2518 21.6938ZM24.4523 9.56542L24.4621 9.55558L24.4523 9.56542Z" fill="white"/>
<path d="M36.5429 12.3491C36.8118 12.3491 36.9462 12.4311 36.9462 12.595C36.9462 12.7328 36.8216 12.8475 36.5724 12.9393C36.3298 13.0246 36.1429 13.1065 36.0117 13.1852C35.8806 13.2574 35.7593 13.3623 35.6478 13.5C35.4183 13.782 35.1756 14.2705 34.9199 14.9656L33.4444 18.9789C32.1788 22.4282 31.264 24.5037 30.7 25.2054C30.1426 25.9136 29.4803 26.2677 28.7131 26.2677C28.1819 26.2677 27.7983 26.1956 27.5622 26.0513C27.1687 25.8021 26.972 25.5464 26.972 25.2841C26.972 25.1005 27.0376 24.9496 27.1687 24.8316C27.3852 24.6283 27.5819 24.5267 27.7589 24.5267C27.9426 24.5267 28.1032 24.5562 28.2409 24.6152C28.3786 24.6808 28.5098 24.7496 28.6344 24.8218C28.7655 24.9005 28.8836 24.9693 28.9885 25.0283C29.0934 25.0939 29.1885 25.1267 29.2738 25.1267C29.359 25.1267 29.4475 25.1201 29.5393 25.107C29.6377 25.0939 29.7426 25.048 29.8541 24.9693C29.9656 24.8972 30.0869 24.7824 30.2181 24.625C30.3492 24.4677 30.4935 24.248 30.6509 23.966C30.9984 23.3299 31.3886 22.4315 31.8214 21.2708C31.5394 21.061 31.0935 20.3036 30.4836 18.9986L28.3098 14.1984C28.113 13.7721 27.9622 13.5 27.8573 13.382C27.6868 13.1656 27.4573 13.0246 27.1687 12.959C26.8868 12.8869 26.7458 12.7623 26.7458 12.5852C26.7458 12.5262 26.7818 12.4737 26.854 12.4278C26.9196 12.3754 27.0179 12.3491 27.1491 12.3491L28.6737 12.4573C29.0737 12.4573 29.3754 12.4442 29.5787 12.418C29.9262 12.3721 30.2115 12.3491 30.4345 12.3491C30.8804 12.3491 31.1033 12.4442 31.1033 12.6344C31.1033 12.8311 30.841 12.9426 30.3164 12.9688C29.982 12.9885 29.7918 13.077 29.7459 13.2344C29.7328 13.2803 29.7262 13.3295 29.7262 13.382C29.7262 13.4672 29.8246 13.723 30.0213 14.1492L32.4214 19.5691C32.428 19.5691 32.4313 19.5625 32.4313 19.5494C32.4313 19.5363 32.4345 19.5232 32.4411 19.5101L34.1133 14.582C34.2117 14.2869 34.2936 14.0443 34.3592 13.8541C34.4313 13.6574 34.4674 13.4934 34.4674 13.3623C34.4674 13.2246 34.4215 13.1295 34.3297 13.077C34.2379 13.0246 34.0608 12.9885 33.7985 12.9688C33.3067 12.9229 33.0608 12.8082 33.0608 12.6246C33.0608 12.4409 33.2838 12.3491 33.7297 12.3491L35.4019 12.4475L36.5429 12.3491Z" fill="white"/>
<path d="M38.856 21.6938C38.4298 21.6938 38.2167 21.5725 38.2167 21.3298C38.2167 21.1397 38.3347 21.0446 38.5708 21.0446L39.0528 21.0938C39.4462 21.0938 39.7085 20.8741 39.8397 20.4347C39.9577 20.0609 40.0167 19.392 40.0167 18.4281V9.23098H39.7512C38.6036 9.23098 37.6888 9.34901 37.0068 9.58509C36.5346 9.75559 36.2133 10.0474 36.0428 10.4605C35.9182 10.7622 35.7871 10.913 35.6494 10.913C35.4592 10.913 35.3641 10.8015 35.3641 10.5786C35.3641 10.513 35.3772 10.4376 35.4034 10.3523C35.4362 10.2671 35.4723 10.1654 35.5116 10.0474C35.6166 9.73264 35.6789 9.40475 35.6985 9.06376C35.7182 8.72276 35.7543 8.49652 35.8067 8.38504C35.8658 8.267 35.9444 8.20798 36.0428 8.20798C36.1412 8.20798 36.2297 8.21782 36.3084 8.23749C36.3871 8.25061 36.5018 8.267 36.6527 8.28668C37.0461 8.33914 37.5412 8.36537 38.138 8.36537H44.3743C44.8596 8.36537 45.2104 8.33914 45.4268 8.28668C45.6498 8.23421 45.8104 8.20798 45.9088 8.20798C46.1252 8.20798 46.2334 8.30963 46.2334 8.51291C46.2334 8.61784 46.2137 8.74243 46.1744 8.8867C46.076 9.20802 46.0104 9.48672 45.9776 9.7228C45.9514 9.95232 45.9252 10.1425 45.899 10.2933C45.8727 10.4376 45.8432 10.5523 45.8104 10.6376C45.758 10.7819 45.6793 10.854 45.5743 10.854C45.4694 10.854 45.4006 10.8179 45.3678 10.7458C45.3416 10.6671 45.312 10.5196 45.2793 10.3032C45.2465 10.0867 45.1907 9.90969 45.112 9.77198C45.0333 9.63427 44.9284 9.52607 44.7973 9.44738C44.5677 9.30311 44.194 9.23098 43.6759 9.23098H41.5611V18.4281C41.5611 19.4183 41.6037 20.0576 41.6889 20.3462C41.7808 20.6282 41.889 20.8249 42.0135 20.9364C42.1447 21.0413 42.3152 21.0938 42.525 21.0938L42.9972 21.0446C43.2333 21.0446 43.3513 21.1397 43.3513 21.3298C43.3513 21.5725 43.1415 21.6938 42.7218 21.6938C42.5054 21.6938 42.2759 21.6741 42.0332 21.6348C41.2463 21.5102 40.5709 21.4872 40.0069 21.5659C39.4495 21.6512 39.0659 21.6938 38.856 21.6938Z" fill="white"/>
<path d="M47.1596 20.4445C46.7792 20.0183 46.4842 19.5166 46.2743 18.9396C46.071 18.3625 45.9694 17.7231 45.9694 17.0215C45.9694 16.3132 46.0907 15.664 46.3333 15.0738C46.576 14.4836 46.9104 13.9787 47.3366 13.559C48.2219 12.6869 49.3138 12.2508 50.6122 12.2508C51.6876 12.2508 52.5565 12.6049 53.2189 13.3131C53.8484 13.9951 54.1632 14.8378 54.1632 15.8411C54.1632 16.169 54.1173 16.3952 54.0254 16.5198C53.9402 16.6378 53.832 16.71 53.7008 16.7362C53.5697 16.7559 53.3894 16.7755 53.1598 16.7952C52.9303 16.8083 52.6516 16.8247 52.3237 16.8444C51.9959 16.8641 51.6286 16.8837 51.2221 16.9034C50.822 16.9231 50.4122 16.946 49.9925 16.9723C49.0285 17.0313 48.2547 17.0903 47.6711 17.1493C47.8154 18.9133 48.4908 20.0576 49.6974 20.5823C50.0909 20.7528 50.5105 20.838 50.9565 20.838C51.9008 20.838 52.6483 20.5626 53.1992 20.0117C53.4353 19.7757 53.6156 19.6576 53.7402 19.6576C53.9763 19.6576 54.0943 19.7986 54.0943 20.0806C54.0943 20.2249 53.9959 20.3986 53.7992 20.6019C53.6025 20.8052 53.3205 21.0151 52.9533 21.2315C52.3041 21.6052 51.5467 21.7921 50.681 21.7921C49.8154 21.7921 49.1072 21.6741 48.5564 21.438C48.0121 21.1954 47.5465 20.8642 47.1596 20.4445ZM47.6514 16.4214C50.727 16.264 52.3467 16.0968 52.5106 15.9198C52.5696 15.8542 52.5992 15.6607 52.5992 15.3394C52.5992 15.0181 52.5369 14.7066 52.4123 14.405C52.2877 14.0967 52.1204 13.8344 51.9106 13.618C51.4778 13.1787 50.9401 12.959 50.2974 12.959C49.5695 12.959 48.9564 13.2639 48.458 13.8738C47.9334 14.5099 47.6645 15.3591 47.6514 16.4214Z" fill="white"/>
<path d="M55.0598 21.0151C54.7582 20.7987 54.5221 20.5626 54.3516 20.3068C54.1811 20.0445 54.0959 19.8412 54.0959 19.697C54.0959 19.5461 54.1155 19.4347 54.1549 19.3625C54.2008 19.2838 54.2598 19.2117 54.3319 19.1461C54.5024 18.9822 54.6664 18.9002 54.8238 18.9002C54.9877 18.9002 55.1123 18.9396 55.1976 19.0183C55.2828 19.0904 55.3615 19.2379 55.4336 19.4609C55.5123 19.6773 55.6205 19.8871 55.7582 20.0904C55.9025 20.2937 56.073 20.4708 56.2697 20.6216C56.696 20.9429 57.2173 21.1036 57.8337 21.1036C58.378 21.1036 58.8403 20.9692 59.2207 20.7003C59.6207 20.4249 59.8207 20.0806 59.8207 19.6675C59.8207 19.2478 59.6404 18.8805 59.2797 18.5658C58.8928 18.2313 58.319 17.9133 57.5583 17.6116C56.7976 17.3034 56.2566 17.0444 55.9353 16.8346C55.614 16.6247 55.3517 16.4018 55.1484 16.1657C54.7615 15.7132 54.568 15.1952 54.568 14.6115C54.568 13.9426 54.8697 13.3852 55.473 12.9393C56.0828 12.4934 56.8468 12.2704 57.7649 12.2704C58.5583 12.2704 59.2272 12.4377 59.7715 12.7721C60.2437 13.0672 60.4797 13.3787 60.4797 13.7066C60.4797 13.8771 60.3912 14.0246 60.2142 14.1492C60.0437 14.2672 59.8797 14.3263 59.7223 14.3263C59.5715 14.3263 59.4535 14.2968 59.3682 14.2377C59.283 14.1722 59.1551 14.0082 58.9846 13.7459C58.6502 13.2279 58.1419 12.9688 57.4599 12.9688C56.6927 12.9688 56.1845 13.1983 55.9353 13.6574C55.8632 13.7885 55.8271 13.9295 55.8271 14.0804C55.8271 14.2312 55.8566 14.3787 55.9156 14.523C55.9812 14.6607 56.0992 14.805 56.2697 14.9558C56.6304 15.2574 57.2927 15.6083 58.2567 16.0083C60.1453 16.7887 61.0896 17.7887 61.0896 19.0084C61.0896 19.8281 60.7584 20.497 60.0961 21.0151C59.4272 21.5331 58.5682 21.7921 57.519 21.7921C56.5878 21.7921 55.7681 21.5331 55.0598 21.0151Z" fill="white"/>
<path d="M66.5996 13.2443C66.5996 13.4213 66.4947 13.5098 66.2848 13.5098L63.4913 13.4803V18.9297C63.4913 19.9462 63.7372 20.5495 64.229 20.7396C64.3798 20.7987 64.5569 20.8282 64.7602 20.8282C64.9635 20.8282 65.1471 20.7954 65.311 20.7298C65.4815 20.6577 65.6323 20.5823 65.7635 20.5036C65.8946 20.4249 66.0061 20.3527 66.0979 20.2872C66.1897 20.215 66.275 20.179 66.3537 20.179C66.4389 20.179 66.5143 20.2249 66.5799 20.3167C66.6455 20.4085 66.6783 20.5003 66.6783 20.5921C66.6783 20.8216 66.3865 21.097 65.8028 21.4184C65.3569 21.6675 64.7962 21.7921 64.1208 21.7921C63.4454 21.7921 62.9175 21.5528 62.5371 21.0741C62.1568 20.5888 61.9666 19.9199 61.9666 19.0674V13.4508H61.3666C60.8944 13.4508 60.6584 13.3295 60.6584 13.0869C60.6584 12.9098 60.7895 12.7885 61.0518 12.7229C61.3141 12.6573 61.5404 12.5426 61.7305 12.3786C61.9207 12.2081 62.0748 12.018 62.1929 11.8081C62.3175 11.5917 62.4158 11.3688 62.488 11.1392C62.5601 10.9097 62.6257 10.6999 62.6847 10.5097C62.8289 10.0769 62.9929 9.86051 63.1765 9.86051C63.3863 9.86051 63.4913 10.0474 63.4913 10.4212V12.6442L66.2553 12.5852C66.393 12.5852 66.5012 12.7492 66.5799 13.077C66.593 13.1492 66.5996 13.2049 66.5996 13.2443Z" fill="white"/>
<path d="M67.6143 21.5462C67.2799 21.5462 66.9651 21.5692 66.67 21.6151C66.3815 21.6675 66.0667 21.6938 65.7257 21.6938C65.3913 21.6938 65.2241 21.5856 65.2241 21.3692C65.2241 21.1462 65.3782 21.0347 65.6864 21.0347C66.0077 21.0347 66.2372 20.9757 66.3749 20.8577C66.5979 20.6544 66.8176 20.3232 67.034 19.8642C67.2504 19.4052 67.4504 18.9756 67.634 18.5756C67.8242 18.1756 68.0406 17.71 68.2832 17.1788C68.5258 16.6411 68.7914 16.0444 69.08 15.3886C69.3751 14.7263 69.6833 14.0246 70.0046 13.2836C70.844 11.336 71.3981 10.0277 71.6669 9.35885C71.9358 8.68341 72.0834 8.30963 72.1096 8.23749C72.1424 8.16536 72.1752 8.09978 72.208 8.04076C72.2932 7.90305 72.3653 7.8342 72.4244 7.8342C72.4834 7.8342 72.5326 7.84403 72.5719 7.86371C72.6112 7.87682 72.6539 7.90633 72.6998 7.95224C72.7981 8.07683 72.8965 8.26372 72.9949 8.51291C73.0932 8.75555 73.2244 9.08671 73.3883 9.5064C73.5588 9.92609 73.7523 10.4015 73.9687 10.9327C74.1851 11.4639 74.4146 12.0344 74.6572 12.6442C74.8999 13.2541 75.1425 13.864 75.3851 14.4738C75.6343 15.0771 75.8737 15.664 76.1032 16.2345C76.3393 16.8051 76.5491 17.3198 76.7327 17.7789C77.2967 19.1494 77.6574 19.9691 77.8147 20.238C77.9721 20.5068 78.1033 20.6937 78.2082 20.7987C78.3721 20.956 78.6148 21.0347 78.9361 21.0347C79.2574 21.0347 79.4181 21.1462 79.4181 21.3692C79.4181 21.5856 79.2115 21.6938 78.7984 21.6938C78.6213 21.6938 78.4672 21.6839 78.3361 21.6643C78.2115 21.6512 78.0836 21.638 77.9524 21.6249C77.5721 21.5725 77.2344 21.5462 76.9393 21.5462L75.0409 21.6938C74.6146 21.6938 74.4015 21.5725 74.4015 21.3298C74.4015 21.1331 74.5195 21.0347 74.7556 21.0347L75.3458 21.1036C75.595 21.1036 75.7589 21.0511 75.8376 20.9462C75.9163 20.8347 75.9556 20.697 75.9556 20.5331C75.9556 20.2249 75.8245 19.7462 75.5622 19.0969L74.7458 17.051H69.2865C69.1291 17.4444 68.9816 17.8051 68.8439 18.133C68.7127 18.4609 68.5914 18.7789 68.4799 19.0871C68.3029 19.5855 68.2143 19.979 68.2143 20.2675C68.2143 20.5495 68.2635 20.7593 68.3619 20.897C68.4668 21.0282 68.6603 21.0938 68.9422 21.0938L69.5324 21.0446C69.7685 21.0446 69.8865 21.1397 69.8865 21.3298C69.8865 21.5725 69.6734 21.6938 69.2472 21.6938L67.6143 21.5462ZM74.4113 16.2149L72.0702 10.3523C71.6178 11.4999 70.8079 13.4541 69.6406 16.2149H74.4113Z" fill="white"/>
<path d="M78.5737 24.9988L79.4 25.0677C79.4852 25.0677 79.5541 25.048 79.6065 25.0087C79.659 24.9693 79.7016 24.8775 79.7344 24.7332C79.7934 24.4709 79.8229 23.8939 79.8229 23.002V15.4771C79.8229 14.8607 79.7738 14.4607 79.6754 14.2771C79.577 14.0869 79.4721 13.959 79.3606 13.8935C79.2492 13.8279 79.0688 13.7754 78.8196 13.7361C78.577 13.6967 78.4557 13.5951 78.4557 13.4311C78.4557 13.2803 78.6229 13.1721 78.9573 13.1065C79.7443 12.9426 80.2853 12.7754 80.5804 12.6049C80.9804 12.3819 81.2492 12.2704 81.3869 12.2704C81.5378 12.2704 81.6132 12.3459 81.6132 12.4967C81.6132 12.5688 81.5968 12.6442 81.564 12.7229C81.5378 12.8016 81.5083 12.8934 81.4755 12.9983C81.4296 13.1688 81.3935 13.4934 81.3673 13.9722C82.1673 12.8377 83.1772 12.2704 84.3969 12.2704C85.6363 12.2704 86.6232 12.7131 87.3577 13.5984C88.0659 14.4574 88.42 15.5722 88.42 16.9428C88.42 18.2871 87.9807 19.4281 87.1019 20.3659C86.2166 21.3167 85.1215 21.7921 83.8166 21.7921C82.8723 21.7921 82.0493 21.543 81.3476 21.0446V23.002C81.3476 24.2414 81.4001 24.9103 81.505 25.0087C81.5509 25.048 81.6099 25.0677 81.682 25.0677L83.0001 24.9595C83.1313 24.9595 83.2362 24.9988 83.3149 25.0775C83.3936 25.1628 83.4329 25.2513 83.4329 25.3431C83.4329 25.6251 83.1936 25.7661 82.7149 25.7661L80.6394 25.6185C80.3049 25.6185 79.9869 25.6415 79.6852 25.6874C79.3901 25.7398 79.118 25.7661 78.8688 25.7661C78.6196 25.7661 78.4458 25.7202 78.3475 25.6284C78.2557 25.5431 78.2098 25.4513 78.2098 25.3529C78.2098 25.2546 78.2426 25.1693 78.3081 25.0972C78.3737 25.0316 78.4622 24.9988 78.5737 24.9988ZM81.3476 19.3724C81.7345 20.1724 82.3739 20.697 83.2657 20.9462C83.5477 21.0249 83.8493 21.0642 84.1707 21.0642C84.492 21.0642 84.8133 20.9954 85.1346 20.8577C85.4625 20.7134 85.7478 20.4937 85.9904 20.1986C86.5216 19.5494 86.7872 18.6445 86.7872 17.4838C86.7872 16.1919 86.5085 15.1591 85.9511 14.3853C85.4265 13.6508 84.7674 13.2836 83.9739 13.2836C83.1608 13.2836 82.446 13.6377 81.8296 14.3459C81.6394 14.5689 81.4788 14.8181 81.3476 15.0935V19.3724Z" fill="white"/>
<path d="M88.4708 24.9988L89.297 25.0677C89.3823 25.0677 89.4511 25.048 89.5036 25.0087C89.5561 24.9693 89.5987 24.8775 89.6315 24.7332C89.6905 24.4709 89.72 23.8939 89.72 23.002V15.4771C89.72 14.8607 89.6708 14.4607 89.5725 14.2771C89.4741 14.0869 89.3692 13.959 89.2577 13.8935C89.1462 13.8279 88.9659 13.7754 88.7167 13.7361C88.474 13.6967 88.3527 13.5951 88.3527 13.4311C88.3527 13.2803 88.52 13.1721 88.8544 13.1065C89.6413 12.9426 90.1823 12.7754 90.4774 12.6049C90.8774 12.3819 91.1463 12.2704 91.284 12.2704C91.4348 12.2704 91.5102 12.3459 91.5102 12.4967C91.5102 12.5688 91.4938 12.6442 91.4611 12.7229C91.4348 12.8016 91.4053 12.8934 91.3725 12.9983C91.3266 13.1688 91.2906 13.4934 91.2643 13.9722C92.0644 12.8377 93.0742 12.2704 94.294 12.2704C95.5334 12.2704 96.5203 12.7131 97.2547 13.5984C97.963 14.4574 98.3171 15.5722 98.3171 16.9428C98.3171 18.2871 97.8777 19.4281 96.999 20.3659C96.1137 21.3167 95.0186 21.7921 93.7136 21.7921C92.7693 21.7921 91.9463 21.543 91.2447 21.0446V23.002C91.2447 24.2414 91.2971 24.9103 91.402 25.0087C91.4479 25.048 91.507 25.0677 91.5791 25.0677L92.8972 24.9595C93.0283 24.9595 93.1333 24.9988 93.2119 25.0775C93.2906 25.1628 93.33 25.2513 93.33 25.3431C93.33 25.6251 93.0906 25.7661 92.6119 25.7661L90.5364 25.6185C90.202 25.6185 89.8839 25.6415 89.5823 25.6874C89.2872 25.7398 89.0151 25.7661 88.7659 25.7661C88.5167 25.7661 88.3429 25.7202 88.2445 25.6284C88.1527 25.5431 88.1068 25.4513 88.1068 25.3529C88.1068 25.2546 88.1396 25.1693 88.2052 25.0972C88.2708 25.0316 88.3593 24.9988 88.4708 24.9988ZM91.2447 19.3724C91.6316 20.1724 92.2709 20.697 93.1628 20.9462C93.4447 21.0249 93.7464 21.0642 94.0677 21.0642C94.389 21.0642 94.7104 20.9954 95.0317 20.8577C95.3596 20.7134 95.6448 20.4937 95.8875 20.1986C96.4186 19.5494 96.6842 18.6445 96.6842 17.4838C96.6842 16.1919 96.4055 15.1591 95.8481 14.3853C95.3235 13.6508 94.6645 13.2836 93.871 13.2836C93.0578 13.2836 92.3431 13.6377 91.7266 14.3459C91.5365 14.5689 91.3758 14.8181 91.2447 15.0935V19.3724Z" fill="white"/>
</svg>
